<svg xmlns="http://www.w3.org/2000/svg" width="768" height="512" viewBox="0 0 768 512" preserveAspectRatio="xMidYMid meet">
  <title>Payment gateway scope</title>
  <defs><linearGradient id="g" x1="0" y1="0" x2="1" y2="1"><stop offset="0" stop-color="#A100FF"/><stop offset="1" stop-color="#8C00D9"/></linearGradient><radialGradient id="glow" cx="0.5" cy="0.5" r="0.5"><stop offset="0" stop-color="#A100FF" stop-opacity="0.22"/><stop offset="1" stop-color="#A100FF" stop-opacity="0"/></radialGradient></defs><rect width="768" height="512" fill="#0A0A0A"/>
  <circle cx="420" cy="256" r="230" fill="url(#glow)"/>
  <!-- the card -->
  <rect x="150" y="160" width="290" height="182" rx="6" fill="none" stroke="#C2A3FF" stroke-width="2"/>
  <rect x="150" y="196" width="290" height="30" fill="#C2A3FF" opacity="0.18"/>
  <rect x="176" y="248" width="40" height="30" rx="3" fill="url(#g)"/>
  <g fill="#C2A3FF" opacity="0.55"><rect x="176" y="300" width="44" height="7"/><rect x="230" y="300" width="44" height="7"/><rect x="284" y="300" width="44" height="7"/><rect x="338" y="300" width="44" height="7"/></g>
  <!-- the shield: certified, available -->
  <path d="M520 150 L604 180 V262 C604 316 566 350 520 372 C474 350 436 316 436 262 V180 Z" fill="url(#g)"/>
  <path d="M492 258 l20 20 l36 -42" fill="none" stroke="#FFFFFF" stroke-width="5" stroke-linecap="square"/>
  <!-- real-time sync -->
  <g fill="none" stroke="#C2A3FF" stroke-width="1.6" opacity="0.7">
    <path d="M300 128 C360 84 470 84 520 128" stroke-dasharray="5 5"/><path d="M512 120 l10 8 l-12 5"/>
    <path d="M520 400 C470 440 360 440 300 396" stroke-dasharray="5 5"/><path d="M308 404 l-10 -8 l12 -5"/>
  </g>
  <g fill="none" stroke="#C2A3FF" stroke-width="1.5" opacity="0.4"><circle cx="660" cy="150" r="16"/><circle cx="676" cy="380" r="10"/><circle cx="104" cy="400" r="12"/></g>
</svg>
