<svg xmlns="http://www.w3.org/2000/svg" width="768" height="512" viewBox="0 0 768 512" preserveAspectRatio="xMidYMid meet">
  <title>Process map</title>
  <defs><linearGradient id="g" x1="0" y1="0" x2="1" y2="1"><stop offset="0" stop-color="#A100FF"/><stop offset="1" stop-color="#8C00D9"/></linearGradient><radialGradient id="glow" cx="0.5" cy="0.5" r="0.5"><stop offset="0" stop-color="#A100FF" stop-opacity="0.22"/><stop offset="1" stop-color="#A100FF" stop-opacity="0"/></radialGradient></defs><rect width="768" height="512" fill="#0A0A0A"/>
  <circle cx="384" cy="256" r="240" fill="url(#glow)"/>
  <!-- four lanes of a service blueprint -->
  <g stroke="#C2A3FF" stroke-width="1.2" opacity="0.35"><line x1="96" y1="130" x2="672" y2="130"/><line x1="96" y1="214" x2="672" y2="214"/><line x1="96" y1="298" x2="672" y2="298"/><line x1="96" y1="382" x2="672" y2="382"/></g>
  <g fill="#C2A3FF" opacity="0.6"><rect x="96" y="96" width="44" height="6"/><rect x="96" y="180" width="36" height="6"/><rect x="96" y="264" width="40" height="6"/><rect x="96" y="348" width="32" height="6"/></g>
  <g fill="none" stroke="#C2A3FF" stroke-width="1.6" opacity="0.7">
    <rect x="182" y="152" width="40" height="40"/><rect x="270" y="236" width="40" height="40"/><rect x="358" y="152" width="40" height="40"/><rect x="446" y="320" width="40" height="40"/><rect x="534" y="236" width="40" height="40"/>
  </g>
  <!-- the online flow crossing the lanes to boarding -->
  <path d="M150 172 H182 M222 172 C246 172 246 256 270 256 M310 256 C334 256 334 172 358 172 M398 172 C422 172 422 340 446 340 M486 340 C510 340 510 256 534 256 M574 256 H612" fill="none" stroke="#A100FF" stroke-width="2.2"/>
  <rect x="612" y="230" width="52" height="52" fill="url(#g)"/>
  <circle cx="150" cy="172" r="7" fill="#C2A3FF"/>
</svg>
