<svg xmlns="http://www.w3.org/2000/svg" width="640" height="512" viewBox="0 0 640 512" preserveAspectRatio="xMidYMid meet" version="1.0">
  <title>House of bricks</title>
  <defs>
    <radialGradient id="r3-glow" cx="0.5" cy="0.54" r="0.56">
      <stop offset="0" stop-color="#A100FF" stop-opacity="0.26"/>
      <stop offset="1" stop-color="#A100FF" stop-opacity="0"/>
    </radialGradient>
    <linearGradient id="r3-wall" x1="0" y1="0" x2="0" y2="1">
      <stop offset="0" stop-color="#C2A3FF"/>
      <stop offset="0.55" stop-color="#A100FF"/>
      <stop offset="1" stop-color="#8C00D9"/>
    </linearGradient>
  </defs>
  <rect width="640" height="512" fill="#0A0A0A"/>
  <ellipse cx="320" cy="276" rx="236" ry="184" fill="url(#r3-glow)"/>
  <g fill="url(#r3-wall)">
    <rect x="164" y="140" width="150" height="40"/><rect x="326" y="140" width="150" height="40"/>
    <rect x="164" y="192" width="70"  height="40"/><rect x="246" y="192" width="150" height="40"/><rect x="408" y="192" width="68" height="40"/>
    <rect x="164" y="244" width="150" height="40"/><rect x="326" y="244" width="150" height="40"/>
    <rect x="164" y="296" width="70"  height="40"/><rect x="246" y="296" width="150" height="40"/><rect x="408" y="296" width="68" height="40"/>
    <rect x="164" y="348" width="150" height="40"/><rect x="326" y="348" width="150" height="40"/>
  </g>
  <g stroke="#0A0A0A" stroke-width="3" fill="none" opacity="0.85">
    <path d="M164 188 H476 M164 240 H476 M164 292 H476 M164 344 H476"/>
  </g>
  <rect x="132" y="400" width="376" height="7" fill="#A100FF" opacity="0.85"/>
</svg>
